<?xml version="1.0" encoding="UTF-8"?>
<svg width="273px" height="69px" viewBox="0 0 273 69" version="1.1" xmlns="http://www.w3.org/2000/svg" xmlns:xlink="http://www.w3.org/1999/xlink">
    <!-- Generator: Sketch 51 (57462) - http://www.bohemiancoding.com/sketch -->
    <title>Group</title>
    <desc>Created with Sketch.</desc>
    <defs></defs>
    <g id="Page-1" stroke="none" stroke-width="1" fill="none" fill-rule="evenodd">
        <g id="Artboard" transform="translate(-93.000000, -132.000000)">
            <g id="Group" transform="translate(93.000000, 132.000000)">
                <path d="M48.3133698,0 L59.4825281,17.1904297 L5,17.1904297 C5,11.4602865 5,7.89518229 5,6.49511719 C5,4.39501953 5.73980963,2.88069661 6.96838037,1.68115234 C8.19695111,0.481608073 9.74741738,0 11.6522855,0 C12.9221975,0 25.142559,0 48.3133698,0 Z" id="Path" fill="#443531"></path>
                <path d="M30.1572266,18.5219727 L56.5048828,48.9863281 C57.9484136,51.3848701 58.7146082,52.9355699 58.8034668,53.6384277 C59.1112256,56.0727539 59.1112256,58.0159215 58.8034668,60.1320801 C58.5982942,61.5428525 58.0842969,62.9125628 57.2614746,64.2412109 C56.7570801,65.2496745 56.0408529,66.0970866 55.112793,66.7834473 C53.7207031,67.8129883 52.8691406,68.3083496 51.4782715,68.3083496 C50.5510254,68.3083496 49.2746582,68.3083496 47.6491699,68.3083496 L13.1003418,68.3083496 L0.708740234,49.9936523 L34.4943848,49.9936523 L5.57617188,18.5219727 L30.1572266,18.5219727 Z" id="Path-2" fill="#F08E00"></path>
                <polygon id="Path-3" fill="#443531" points="66.9365234 4.83349609 66.9365234 43.1040039 105.698242 43.1040039 105.698242 34.7628088 77.3842773 34.7628088 77.3842773 28.6061285 93.315918 28.6061285 93.315918 19.1543166 77.3842773 19.1543166 77.3842773 13.1631223 105.698242 13.1631223 105.698242 4.83349609"></polygon>
                <polygon id="Path-3" fill="#443531" points="171.936523 4.83349609 171.936523 43.1040039 210.698242 43.1040039 210.698242 34.7628088 182.384277 34.7628088 182.384277 28.6061285 198.315918 28.6061285 198.315918 19.1543166 182.384277 19.1543166 182.384277 13.1631223 210.698242 13.1631223 210.698242 4.83349609"></polygon>
                <polygon id="Path-4" fill="#443531" points="112.714355 4.72119141 122.84082 4.72119141 137.555176 28.1982422 153.122559 4.72119141 162.172852 4.72119141 162.172852 42.9916992 151.79834 42.9916992 151.79834 23.8564453 141.219727 42.9916992 133.98584 42.9916992 122.84082 23.8564453 122.84082 42.9916992 112.714355 42.9916992"></polygon>
                <polygon id="Path-5" fill="#443531" points="218.924805 4.84472656 233.971191 4.84472656 244.557617 16.3579102 254.695801 4.84472656 271.139648 4.84472656 253.594238 24.1118164 271.139648 43.1582031 254.695801 43.1582031 244.557617 31.3417969 233.971191 43.1582031 218.924805 43.1582031 236.044434 24.1118164"></polygon>
                <path d="M78.7132802,49.7324219 L78.7132802,52.4277344 C77.3981695,51.3274685 76.037506,50.7773438 74.631249,50.7773438 C73.081762,50.7773438 71.7764365,51.3339788 70.7152333,52.4472656 C69.6475197,53.554042 69.1136708,54.9081951 69.1136708,56.5097656 C69.1136708,58.0918048 69.6475197,59.4264269 70.7152333,60.5136719 C71.782947,61.6009169 73.0915277,62.1445312 74.6410146,62.1445312 C75.4417998,62.1445312 76.1221316,62.0143242 76.6820302,61.7539062 C76.9945318,61.6236973 77.3184218,61.4479178 77.6537099,61.2265625 C77.988998,61.0052072 78.3421846,60.7382828 78.7132802,60.4257812 L78.7132802,63.1699219 C77.4111904,63.9056026 76.0440165,64.2734375 74.6117177,64.2734375 C72.456759,64.2734375 70.6175847,63.5214919 69.0941396,62.0175781 C67.5772049,60.5006435 66.818749,58.6712347 66.818749,56.5292969 C66.818749,54.6087144 67.4535082,52.8964919 68.7230458,51.3925781 C70.2855536,49.550121 72.3070178,48.6289062 74.787499,48.6289062 C76.1416724,48.6289062 77.4502531,48.9967411 78.7132802,49.7324219 Z M85.0347648,56.3925781 C85.0347648,54.2701717 85.8127518,52.4472732 87.3687491,50.9238281 C88.9182361,49.400383 90.7801966,48.6386719 92.9546866,48.6386719 C95.1031349,48.6386719 96.9455644,49.4068934 98.4820304,50.9433594 C100.025007,52.4798254 100.796484,54.3255101 100.796484,56.4804688 C100.796484,58.6484483 100.021752,60.4876227 98.4722648,61.9980469 C96.9162674,63.5149815 95.038031,64.2734375 92.8374991,64.2734375 C90.8908748,64.2734375 89.1428454,63.5996161 87.5933585,62.2519531 C85.8876208,60.7610603 85.0347648,58.8079548 85.0347648,56.3925781 Z M87.3296866,56.421875 C87.3296866,58.08855 87.8895769,59.458979 89.0093741,60.5332031 C90.122661,61.6074272 91.4084554,62.1445312 92.866796,62.1445312 C94.4488352,62.1445312 95.7834572,61.5976617 96.8707023,60.5039062 C97.9579473,59.3971299 98.5015616,58.0494871 98.5015616,56.4609375 C98.5015616,54.8528565 97.9644576,53.5052138 96.8902335,52.4179688 C95.8225198,51.3242133 94.5009185,50.7773438 92.9253898,50.7773438 C91.3563715,50.7773438 90.031515,51.3242133 88.9507804,52.4179688 C87.8700458,53.4987033 87.3296866,54.8333254 87.3296866,56.421875 Z M107.957812,64 L107.957812,47.8964844 L118.953906,59.4003906 L118.953906,48.921875 L121.229296,48.921875 L121.229296,64.9179688 L110.233202,53.4433594 L110.233202,64 L107.957812,64 Z M137.667968,51.1679688 L135.822265,52.2617188 C135.477211,51.6627574 135.148439,51.2721363 134.835937,51.0898438 C134.510415,50.8815094 134.090497,50.7773438 133.576171,50.7773438 C132.944658,50.7773438 132.420575,50.9563784 132.003906,51.3144531 C131.587237,51.6660174 131.378906,52.1087213 131.378906,52.6425781 C131.378906,53.3782589 131.925775,53.9707009 133.019531,54.4199219 L134.523437,55.0351562 C135.747401,55.5299504 136.642575,56.1337855 137.208984,56.8466797 C137.775393,57.5595739 138.058593,58.4335886 138.058593,59.46875 C138.058593,60.8554757 137.596358,62.0012976 136.671875,62.90625 C135.74088,63.8177129 134.585293,64.2734375 133.205078,64.2734375 C131.896477,64.2734375 130.815759,63.8860716 129.96289,63.1113281 C129.123042,62.3365847 128.598959,61.2461008 128.390625,59.8398438 L130.695312,59.3320312 C130.799479,60.2174523 130.981769,60.8294254 131.242187,61.1679688 C131.710939,61.8190137 132.394526,62.1445312 133.292968,62.1445312 C134.002607,62.1445312 134.591794,61.9069034 135.060546,61.4316406 C135.529299,60.9563778 135.763671,60.3541703 135.763671,59.625 C135.763671,59.3320298 135.722982,59.0634778 135.641601,58.8193359 C135.56022,58.5751941 135.433269,58.350587 135.260742,58.1455078 C135.088215,57.9404287 134.865235,57.7483733 134.591796,57.5693359 C134.318358,57.3902986 133.99284,57.2194019 133.615234,57.0566406 L132.160156,56.4511719 C130.096343,55.5787717 129.064453,54.3027428 129.064453,52.6230469 C129.064453,51.4902287 129.497391,50.5429726 130.363281,49.78125 C131.229171,49.013017 132.306634,48.6289062 133.595703,48.6289062 C135.333993,48.6289062 136.691401,49.475252 137.667968,51.1679688 Z M149.546093,51.0605469 L149.546093,64 L147.270703,64 L147.270703,51.0605469 L143.803906,51.0605469 L143.803906,48.921875 L153.003125,48.921875 L153.003125,51.0605469 L149.546093,51.0605469 Z M164.441797,57.5742188 L169.109766,64 L166.326562,64 L162.019922,57.828125 L161.609766,57.828125 L161.609766,64 L159.334375,64 L159.334375,48.921875 L162.000391,48.921875 C163.992588,48.921875 165.431376,49.2962202 166.316797,50.0449219 C167.293364,50.8782594 167.781641,51.9785088 167.781641,53.3457031 C167.781641,54.4134168 167.475654,55.3313764 166.863672,56.0996094 C166.25169,56.8678424 165.444406,57.3593739 164.441797,57.5742188 Z M161.609766,55.8457031 L162.332422,55.8457031 C164.48738,55.8457031 165.564844,55.0221437 165.564844,53.375 C165.564844,51.8320235 164.516677,51.0605469 162.420312,51.0605469 L161.609766,51.0605469 L161.609766,55.8457031 Z M177.726172,48.921875 L177.726172,58.0039062 C177.726172,59.2994856 177.937758,60.2467418 178.360938,60.8457031 C178.992451,61.7115929 179.881114,62.1445312 181.026953,62.1445312 C182.179303,62.1445312 183.071221,61.7115929 183.702734,60.8457031 C184.125914,60.2662731 184.3375,59.319017 184.3375,58.0039062 L184.3375,48.921875 L186.612891,48.921875 L186.612891,58.6289062 C186.612891,60.2174559 186.118104,61.5260365 185.128516,62.5546875 C184.015229,63.7005266 182.648055,64.2734375 181.026953,64.2734375 C179.405851,64.2734375 178.041933,63.7005266 176.935156,62.5546875 C175.945568,61.5260365 175.450781,60.2174559 175.450781,58.6289062 L175.450781,48.921875 L177.726172,48.921875 Z M205.66875,49.7324219 L205.66875,52.4277344 C204.35364,51.3274685 202.992976,50.7773438 201.586719,50.7773438 C200.037232,50.7773438 198.731907,51.3339788 197.670703,52.4472656 C196.60299,53.554042 196.069141,54.9081951 196.069141,56.5097656 C196.069141,58.0918048 196.60299,59.4264269 197.670703,60.5136719 C198.738417,61.6009169 200.046998,62.1445312 201.596485,62.1445312 C202.39727,62.1445312 203.077602,62.0143242 203.6375,61.7539062 C203.950002,61.6236973 204.273892,61.4479178 204.60918,61.2265625 C204.944468,61.0052072 205.297655,60.7382828 205.66875,60.4257812 L205.66875,63.1699219 C204.36666,63.9056026 202.999487,64.2734375 201.567188,64.2734375 C199.412229,64.2734375 197.573055,63.5214919 196.04961,62.0175781 C194.532675,60.5006435 193.774219,58.6712347 193.774219,56.5292969 C193.774219,54.6087144 194.408978,52.8964919 195.678516,51.3925781 C197.241024,49.550121 199.262488,48.6289062 201.742969,48.6289062 C203.097142,48.6289062 204.405723,48.9967411 205.66875,49.7324219 Z M217,51.0605469 L217,64 L214.72461,64 L214.72461,51.0605469 L211.257813,51.0605469 L211.257813,48.921875 L220.457032,48.921875 L220.457032,51.0605469 L217,51.0605469 Z M229.063673,48.921875 L229.063673,64 L226.788282,64 L226.788282,48.921875 L229.063673,48.921875 Z M236.234766,56.3925781 C236.234766,54.2701717 237.012753,52.4472732 238.568751,50.9238281 C240.118238,49.400383 241.980198,48.6386719 244.154688,48.6386719 C246.303137,48.6386719 248.145566,49.4068934 249.682032,50.9433594 C251.225009,52.4798254 251.996485,54.3255101 251.996485,56.4804688 C251.996485,58.6484483 251.221753,60.4876227 249.672266,61.9980469 C248.116269,63.5149815 246.238033,64.2734375 244.037501,64.2734375 C242.090877,64.2734375 240.342847,63.5996161 238.79336,62.2519531 C237.087623,60.7610603 236.234766,58.8079548 236.234766,56.3925781 Z M238.529688,56.421875 C238.529688,58.08855 239.089579,59.458979 240.209376,60.5332031 C241.322663,61.6074272 242.608457,62.1445312 244.066798,62.1445312 C245.648837,62.1445312 246.983459,61.5976617 248.070704,60.5039062 C249.157949,59.3971299 249.701563,58.0494871 249.701563,56.4609375 C249.701563,54.8528565 249.164459,53.5052138 248.090235,52.4179688 C247.022522,51.3242133 245.70092,50.7773438 244.125391,50.7773438 C242.556373,50.7773438 241.231517,51.3242133 240.150782,52.4179688 C239.070048,53.4987033 238.529688,54.8333254 238.529688,56.421875 Z M259.157814,64 L259.157814,47.8964844 L270.153907,59.4003906 L270.153907,48.921875 L272.429298,48.921875 L272.429298,64.9179688 L261.433204,53.4433594 L261.433204,64 L259.157814,64 Z" id="CONSTRUCTION" fill="#F08E00"></path>
            </g>
        </g>
    </g>
</svg>